<svg width="24" height="25" viewBox="0 0 24 25" fill="none" xmlns="http://www.w3.org/2000/svg">
<path d="M21.5 13.1863V11.8137C21.5 10.1787 21.5 9.3612 21.1955 8.62612C20.891 7.89104 20.313 7.31297 19.1569 6.15685L18.3431 5.34315C17.187 4.18702 16.609 3.60896 15.8739 3.30448C15.1388 3 14.3213 3 12.6863 3H11.3137C9.67871 3 8.8612 3 8.12612 3.30448C7.39104 3.60896 6.81297 4.18702 5.65685 5.34315L4.84315 6.15685C3.68702 7.31298 3.10896 7.89104 2.80448 8.62612C2.5 9.3612 2.5 10.1787 2.5 11.8137V13.1863C2.5 14.8213 2.5 15.6388 2.80448 16.3739C3.10896 17.109 3.68702 17.687 4.84315 18.8431L5.65685 19.6569C6.81297 20.813 7.39104 21.391 8.12612 21.6955C8.8612 22 9.67871 22 11.3137 22H12.6863C14.3213 22 15.1388 22 15.8739 21.6955C16.609 21.391 17.187 20.813 18.3431 19.6569L19.1569 18.8431C20.313 17.687 20.891 17.109 21.1955 16.3739C21.5 15.6388 21.5 14.8213 21.5 13.1863Z" stroke="#EB3D4D" stroke-width="1.5" stroke-linecap="round" stroke-linejoin="round"/>
<path d="M12 8.5V13" stroke="#EB3D4D" stroke-width="1.5" stroke-linecap="round" stroke-linejoin="round"/>
<path d="M12 16.4883V16.4983" stroke="#EB3D4D" stroke-width="1.8" stroke-linecap="round" stroke-linejoin="round"/>
</svg>
