<svg width="105" height="28" viewBox="0 0 105 28" fill="none" xmlns="http://www.w3.org/2000/svg">
<path d="M39.2733 6.89844H33.4649C33.2727 6.89832 33.0866 6.96704 32.9404 7.09224C32.7942 7.21743 32.6974 7.39086 32.6675 7.58128L30.3183 22.5127C30.3075 22.582 30.3118 22.6528 30.3309 22.7203C30.35 22.7877 30.3835 22.8502 30.429 22.9035C30.4746 22.9567 30.5311 22.9994 30.5946 23.0287C30.6582 23.058 30.7274 23.073 30.7973 23.0729H33.5703C33.7627 23.073 33.9488 23.0042 34.095 22.8788C34.2412 22.7535 34.338 22.5798 34.3677 22.3893L35.0013 18.362C35.0311 18.1716 35.1277 17.9981 35.2737 17.8727C35.4198 17.7474 35.6057 17.6784 35.798 17.6783H37.6367C41.4628 17.6783 43.6709 15.8222 44.2476 12.1441C44.5075 10.5349 44.2586 9.27051 43.507 8.38502C42.6815 7.4127 41.2173 6.89844 39.2733 6.89844ZM39.9434 12.3518C39.6257 14.4412 38.0333 14.4412 36.4935 14.4412H35.6171L36.232 10.5391C36.25 10.425 36.308 10.321 36.3957 10.2459C36.4833 10.1708 36.5948 10.1296 36.7101 10.1296H37.1118C38.1607 10.1296 39.1501 10.1296 39.6614 10.729C39.9663 11.0866 40.0597 11.6179 39.9434 12.3518ZM56.6354 12.2845H53.854C53.7387 12.2845 53.6272 12.3258 53.5395 12.4009C53.4519 12.476 53.3938 12.5799 53.3758 12.6941L53.2527 13.474L53.0582 13.1913C52.4561 12.3152 51.1133 12.0223 49.7731 12.0223C46.6995 12.0223 44.0744 14.3561 43.5631 17.6298C43.2972 19.2628 43.6752 20.8243 44.5992 21.9133C45.4468 22.9146 46.6596 23.3318 48.1026 23.3318C50.5791 23.3318 51.9524 21.7354 51.9524 21.7354L51.8284 22.5102C51.8174 22.5794 51.8214 22.6503 51.8403 22.7178C51.8592 22.7854 51.8925 22.848 51.9379 22.9014C51.9832 22.9548 52.0396 22.9977 52.1031 23.0272C52.1666 23.0567 52.2357 23.072 52.3057 23.0721H54.8111C55.0036 23.0722 55.1897 23.0033 55.3359 22.878C55.4821 22.7526 55.5789 22.579 55.6086 22.3884L57.1119 12.8448C57.123 12.7757 57.1189 12.705 57.1001 12.6376C57.0812 12.5702 57.048 12.5077 57.0027 12.4544C56.9574 12.4011 56.9011 12.3584 56.8377 12.329C56.7743 12.2997 56.7053 12.2845 56.6354 12.2845ZM52.7584 17.7115C52.49 19.3045 51.2288 20.3739 49.6203 20.3739C48.8126 20.3739 48.1671 20.1142 47.7526 19.6221C47.3416 19.1334 47.1853 18.4378 47.3161 17.663C47.5667 16.0836 48.8491 14.9793 50.433 14.9793C51.2229 14.9793 51.8649 15.2424 52.2879 15.7388C52.7117 16.2403 52.8798 16.9401 52.7584 17.7115ZM71.4489 12.2845H68.6538C68.522 12.2848 68.3922 12.3172 68.2758 12.3791C68.1593 12.4409 68.0596 12.5304 67.9854 12.6396L64.1305 18.3322L62.4964 12.8618C62.4463 12.695 62.3439 12.5487 62.2044 12.4448C62.0649 12.3408 61.8957 12.2846 61.7219 12.2845H58.9752C58.8981 12.2843 58.8221 12.3026 58.7535 12.3378C58.6848 12.373 58.6256 12.4241 58.5806 12.4869C58.5357 12.5497 58.5063 12.6224 58.4951 12.6988C58.4838 12.7753 58.4909 12.8534 58.5158 12.9265L61.5945 21.984L58.7001 26.0802C58.6486 26.1528 58.6181 26.2382 58.6119 26.3271C58.6056 26.4159 58.6239 26.5048 58.6647 26.5839C58.7055 26.663 58.7672 26.7294 58.8431 26.7757C58.919 26.822 59.0061 26.8465 59.095 26.8465H61.8866C62.017 26.8466 62.1454 26.8151 62.2609 26.7546C62.3765 26.6941 62.4756 26.6064 62.5499 26.4991L71.8463 13.0466C71.8967 12.9738 71.9263 12.8886 71.9318 12.8002C71.9373 12.7117 71.9186 12.6235 71.8776 12.545C71.8367 12.4665 71.7751 12.4007 71.6995 12.3548C71.6239 12.3089 71.5372 12.2846 71.4489 12.2845Z" fill="#253B80"/>
<path d="M80.6953 6.89929H74.8861C74.694 6.89937 74.5082 6.96819 74.3621 7.09337C74.2161 7.21854 74.1194 7.39186 74.0895 7.58213L71.7403 22.5136C71.7294 22.5827 71.7336 22.6534 71.7525 22.7208C71.7715 22.7882 71.8048 22.8507 71.8502 22.904C71.8955 22.9572 71.9519 23 72.0153 23.0293C72.0787 23.0586 72.1478 23.0738 72.2176 23.0738H75.1987C75.3331 23.0736 75.4631 23.0253 75.5653 22.9376C75.6674 22.8499 75.735 22.7285 75.7558 22.5953L76.4225 18.3629C76.4522 18.1724 76.5488 17.9989 76.6949 17.8736C76.841 17.7482 77.0269 17.6793 77.2191 17.6792H79.057C82.8839 17.6792 85.0913 15.8231 85.6688 12.1449C85.9295 10.5357 85.679 9.27136 84.9273 8.38588C84.1027 7.41355 82.6393 6.89929 80.6953 6.89929ZM81.3654 12.3527C81.0486 14.4421 79.4562 14.4421 77.9156 14.4421H77.0399L77.6557 10.54C77.6733 10.4258 77.7312 10.3218 77.8187 10.2466C77.9063 10.1715 78.0177 10.1303 78.133 10.1304H78.5347C79.5827 10.1304 80.573 10.1304 81.0843 10.7298C81.3892 11.0874 81.4817 11.6187 81.3654 12.3527ZM98.0566 12.2854H95.2769C95.1616 12.2851 95.05 12.3262 94.9624 12.4014C94.8748 12.4765 94.817 12.5807 94.7996 12.6949L94.6764 13.4748L94.4811 13.1922C93.8789 12.3161 92.537 12.0232 91.1968 12.0232C88.1232 12.0232 85.4989 14.3569 84.9876 17.6306C84.7227 19.2637 85.0989 20.8252 86.0229 21.9142C86.8722 22.9154 88.0833 23.3326 89.5263 23.3326C92.0028 23.3326 93.3761 21.7362 93.3761 21.7362L93.2521 22.511C93.2411 22.5804 93.2452 22.6514 93.2642 22.7191C93.2831 22.7868 93.3166 22.8495 93.3621 22.9029C93.4077 22.9564 93.4643 22.9992 93.528 23.0286C93.5917 23.058 93.661 23.0731 93.7311 23.0729H96.2357C96.428 23.0728 96.6139 23.0039 96.7599 22.8785C96.906 22.7532 97.0026 22.5797 97.0323 22.3893L98.5365 12.8456C98.5471 12.7763 98.5427 12.7055 98.5235 12.638C98.5042 12.5706 98.4707 12.5081 98.4251 12.4548C98.3795 12.4016 98.323 12.3589 98.2594 12.3297C98.1957 12.3004 98.1266 12.2853 98.0566 12.2854ZM94.1796 17.7124C93.9129 19.3054 92.65 20.3748 91.0414 20.3748C90.2354 20.3748 89.5883 20.1151 89.1738 19.623C88.7628 19.1343 88.6082 18.4386 88.7373 17.6638C88.9895 16.0845 90.2703 14.9802 91.8542 14.9802C92.644 14.9802 93.2861 15.2432 93.7091 15.7396C94.1346 16.2411 94.3027 16.941 94.1796 17.7124ZM101.336 7.30882L98.9518 22.5136C98.9408 22.5827 98.945 22.6534 98.964 22.7208C98.9829 22.7882 99.0162 22.8507 99.0616 22.904C99.107 22.9572 99.1633 23 99.2267 23.0293C99.2902 23.0586 99.3592 23.0738 99.4291 23.0738H101.826C102.224 23.0738 102.562 22.7843 102.623 22.3901L104.974 7.45953C104.985 7.39032 104.981 7.31956 104.962 7.25212C104.943 7.18468 104.91 7.12215 104.864 7.06884C104.819 7.01552 104.763 6.97269 104.699 6.94327C104.636 6.91386 104.567 6.89856 104.497 6.89844H101.813C101.698 6.89885 101.587 6.94037 101.499 7.01557C101.412 7.09077 101.354 7.19473 101.336 7.30882Z" fill="#179BD7"/>
<path d="M6.19176 25.976L6.63594 23.1475L5.64651 23.1245H0.921875L4.20525 2.25358C4.21503 2.18981 4.24734 2.13168 4.29629 2.0898C4.34524 2.04791 4.40758 2.02505 4.47193 2.02539H12.4383C15.083 2.02539 16.9082 2.57712 17.8611 3.66609C18.3078 4.17694 18.5923 4.71079 18.7299 5.29827C18.8743 5.9147 18.8768 6.65118 18.7359 7.54944L18.7257 7.615V8.19056L19.1724 8.44428C19.5134 8.6175 19.82 8.85181 20.0769 9.13564C20.4591 9.57242 20.7062 10.1275 20.8107 10.7857C20.9185 11.4626 20.8829 12.268 20.7062 13.1799C20.5024 14.2289 20.1729 15.1424 19.7278 15.89C19.3352 16.5597 18.8072 17.1397 18.1779 17.5928C17.5868 18.0134 16.8844 18.3327 16.0903 18.5371C15.3208 18.738 14.4435 18.8393 13.4813 18.8393H12.8613C12.4179 18.8393 11.9874 18.9994 11.6493 19.2863C11.3118 19.5763 11.0879 19.977 11.0175 20.417L10.9707 20.6716L10.186 25.6567L10.1503 25.8397C10.141 25.8976 10.1248 25.9266 10.1011 25.9462C10.078 25.965 10.0493 25.9756 10.0195 25.976H6.19176Z" fill="#253B80"/>
<path d="M19.6001 7.67969C19.5763 7.83209 19.5491 7.9879 19.5185 8.14797C18.468 13.5554 14.8737 15.4234 10.2833 15.4234H7.94604C7.38466 15.4234 6.9116 15.8321 6.82412 16.3872L5.62746 23.9955L5.28859 26.1522C5.27509 26.2377 5.28025 26.3252 5.3037 26.4086C5.32715 26.4919 5.36835 26.5692 5.42444 26.6351C5.48054 26.7009 5.55021 26.7538 5.62866 26.7901C5.7071 26.8264 5.79246 26.8452 5.87885 26.8453H10.0243C10.5152 26.8453 10.9322 26.4877 11.0094 26.0023L11.0502 25.7912L11.8307 20.8257L11.8808 20.5532C11.9573 20.0662 12.3751 19.7086 12.866 19.7086H13.486C17.5023 19.7086 20.6464 18.0739 21.5653 13.3434C21.9492 11.3672 21.7505 9.71715 20.7347 8.55665C20.4128 8.19766 20.0283 7.90049 19.6001 7.67969Z" fill="#179BD7"/>
<path d="M18.4973 7.24162C18.1618 7.14433 17.8206 7.06841 17.4756 7.01429C16.7939 6.90926 16.1049 6.85886 15.4152 6.86358H9.17116C8.93353 6.8634 8.70368 6.94845 8.52315 7.10335C8.34262 7.25826 8.22333 7.4728 8.18683 7.7082L6.85853 16.1424L6.82031 16.3885C6.86169 16.12 6.99756 15.8752 7.20335 15.6984C7.40913 15.5216 7.67123 15.4245 7.94223 15.4247H10.2795C14.8699 15.4247 18.4642 13.5558 19.5147 8.14924C19.5462 7.98917 19.5725 7.83336 19.5963 7.68095C19.319 7.53521 19.0301 7.41303 18.7325 7.31569C18.6545 7.28974 18.5761 7.26505 18.4973 7.24162Z" fill="#222D65"/>
<path d="M8.18849 7.70746C8.22468 7.472 8.34391 7.25735 8.52453 7.10253C8.70515 6.9477 8.93518 6.86296 9.17282 6.8637H15.4168C16.1566 6.8637 16.8471 6.91223 17.4772 7.0144C17.9037 7.08159 18.3242 7.18208 18.735 7.31495C19.045 7.41798 19.333 7.53973 19.5988 7.68021C19.9113 5.68192 19.5962 4.32135 18.5185 3.08933C17.3303 1.73302 15.1858 1.15234 12.4418 1.15234H4.47537C3.91483 1.15234 3.43668 1.56103 3.35005 2.11701L0.0318538 23.2025C0.0163982 23.3004 0.0222785 23.4005 0.0490903 23.4959C0.0759021 23.5913 0.123009 23.6798 0.187171 23.7552C0.251332 23.8306 0.331026 23.8912 0.42077 23.9327C0.510514 23.9743 0.608178 23.9959 0.707044 23.9961H5.62532L6.86019 16.1417L8.18849 7.70746Z" fill="#253B80"/>
</svg>
