<svg width="20" height="21" viewBox="0 0 20 21" fill="none" xmlns="http://www.w3.org/2000/svg">
<path d="M1.66406 10.5002C1.66406 6.76821 1.66406 4.90224 2.82343 3.74286C3.9828 2.5835 5.84878 2.5835 9.58073 2.5835C13.3126 2.5835 15.1786 2.5835 16.3381 3.74286C17.4974 4.90224 17.4974 6.76821 17.4974 10.5002C17.4974 14.2321 17.4974 16.0981 16.3381 17.2575C15.1786 18.4168 13.3126 18.4168 9.58073 18.4168C5.84878 18.4168 3.9828 18.4168 2.82343 17.2575C1.66406 16.0981 1.66406 14.2321 1.66406 10.5002Z" fill="#FF8914" stroke="#FF8914" stroke-width="1.25" stroke-linejoin="round"/>
<path d="M16.3433 3.74335C15.1839 2.58398 14.3179 2.58398 10.5859 2.58398L10 10.5L10.5859 18.4173H10.5859C14.3179 18.4173 15.1839 18.4173 16.3433 17.258C17.5026 16.0986 17.5026 14.2326 17.5026 10.5007V10.5007V10.5006C17.5026 6.7687 17.5026 4.90272 16.3433 3.74335Z" fill="#DFE1E7" stroke="#DFE1E7" stroke-width="1.25"/>
</svg>
