<svg width="67" height="28" viewBox="0 0 67 28" fill="none" xmlns="http://www.w3.org/2000/svg">
<path d="M4.70858 10.9223C4.70858 10.1967 5.30412 9.91754 6.29067 9.91754C7.705 9.91754 9.49162 10.3456 10.9061 11.1085V6.73572C9.36142 6.12173 7.83534 5.87982 6.29067 5.87982C2.5125 5.87982 0 7.85224 0 11.1458C0 16.2812 7.07216 15.4626 7.07216 17.6769C7.07216 18.5327 6.32784 18.8118 5.28554 18.8118C3.74088 18.8118 1.76804 18.1791 0.204664 17.3232V21.7518C1.93554 22.4961 3.685 22.8123 5.28554 22.8123C9.15662 22.8123 11.818 20.8959 11.818 17.5652C11.7995 12.0203 4.70858 13.0063 4.70858 10.9223ZM17.2897 2.15846L12.7486 3.12595L12.73 18.0303C12.73 20.7843 14.7959 22.8123 17.5503 22.8123C19.0764 22.8123 20.193 22.5332 20.8072 22.1983V18.4211C20.2118 18.663 17.2711 19.5189 17.2711 16.765V10.1594H20.8072V6.19617H17.2711L17.2897 2.15846ZM26.5953 7.57304L26.2975 6.19617H22.2775V22.4773H26.9303V11.4434C28.0282 10.0107 29.8895 10.2712 30.4664 10.4758V6.19617C29.8709 5.97284 27.6934 5.56347 26.5953 7.57304ZM31.6016 6.19617H36.273V22.4773H31.6016V6.19617ZM31.6016 4.78202L36.273 3.77723V0L31.6016 0.986207V4.78202ZM45.988 5.87982C44.1641 5.87982 42.9916 6.73572 42.3403 7.33126L42.0982 6.17759H38.0039V27.8734L42.6566 26.8873L42.6753 21.6214C43.3453 22.1053 44.3316 22.7937 45.9695 22.7937C49.3009 22.7937 52.3345 20.1143 52.3345 14.2159C52.3159 8.81973 49.245 5.87982 45.988 5.87982ZM44.8714 18.7001C43.7734 18.7001 43.1218 18.3095 42.6753 17.8256L42.6566 10.9223C43.1405 10.3828 43.8105 10.0107 44.8714 10.0107C46.565 10.0107 47.7375 11.9085 47.7375 14.346C47.7375 16.8394 46.5836 18.7001 44.8714 18.7001ZM67 14.4019C67 9.63848 64.6922 5.87982 60.2814 5.87982C55.8518 5.87982 53.1718 9.63861 53.1718 14.3648C53.1718 19.9654 56.3359 22.7937 60.8768 22.7937C63.0916 22.7937 64.7666 22.2913 66.0322 21.5843V17.8628C64.7668 18.4955 63.315 18.8863 61.4725 18.8863C59.6672 18.8863 58.0666 18.2536 57.862 16.058H66.9628C66.9628 15.8159 67 14.8484 67 14.4019ZM57.8061 12.6343C57.8061 10.5317 59.0903 9.65705 60.2628 9.65705C61.398 9.65705 62.6078 10.5317 62.6078 12.6343H57.8061Z" fill="#6772E5"/>
</svg>
