<svg width="14" height="20" viewBox="0 0 14 20" fill="none" xmlns="http://www.w3.org/2000/svg">
<path d="M13.3865 7.36312C13.3388 7.26371 13.2639 7.17981 13.1706 7.12109C13.0773 7.06238 12.9692 7.03123 12.8589 7.03125H9.11902L12.2112 0.848008C12.2558 0.758692 12.2768 0.659498 12.2724 0.559784C12.268 0.460069 12.2383 0.363121 12.186 0.278086C12.0785 0.105273 11.8896 0 11.6871 0H4.65581C4.53665 0.000109491 4.42036 0.036533 4.32242 0.104416C4.22449 0.172299 4.14957 0.268418 4.10765 0.379961L0.592025 9.75496C0.55883 9.8436 0.54753 9.93894 0.559084 10.0329C0.570639 10.1268 0.604707 10.2166 0.658393 10.2945C0.712384 10.3723 0.784402 10.4359 0.868299 10.4799C0.952197 10.5238 1.04548 10.5468 1.14019 10.5469H5.07695L2.91515 19.2721C2.88288 19.4019 2.89592 19.5388 2.95212 19.6602C3.00832 19.7815 3.10429 19.88 3.22413 19.9393C3.34398 19.9985 3.48041 20.0149 3.61088 19.986C3.74135 19.9571 3.85804 19.8845 3.94167 19.7803L13.3167 7.9834C13.3857 7.89717 13.429 7.79314 13.4413 7.68336C13.4537 7.57358 13.4347 7.46255 13.3865 7.36312Z" fill="url(#paint0_linear_4126_8618)"/>
<defs>
<linearGradient id="paint0_linear_4126_8618" x1="6.99984" y1="20" x2="6.99984" y2="0" gradientUnits="userSpaceOnUse">
<stop stop-color="#FD5900"/>
<stop offset="1" stop-color="#FFDE00"/>
</linearGradient>
</defs>
</svg>
