<svg width="20" height="20" viewBox="0 0 20 20" fill="none" xmlns="http://www.w3.org/2000/svg">
<path d="M17.9193 10.5716V9.42776C17.9193 8.06527 17.9193 7.38401 17.6655 6.77144C17.4118 6.15887 16.9301 5.67715 15.9667 4.71372L15.2885 4.03563C14.3251 3.07219 13.8434 2.59047 13.2309 2.33674C12.6183 2.08301 11.937 2.08301 10.5745 2.08301H9.43069C8.0682 2.08301 7.38694 2.08301 6.77437 2.33674C6.1618 2.59047 5.68008 3.07219 4.71665 4.03563L4.03856 4.71372C3.07512 5.67716 2.5934 6.15887 2.33967 6.77144C2.08594 7.38401 2.08594 8.06527 2.08594 9.42776V10.5716C2.08594 11.9341 2.08594 12.6153 2.33967 13.2279C2.5934 13.8405 3.07512 14.3222 4.03856 15.2856L4.71665 15.9638C5.68008 16.9272 6.1618 17.4088 6.77437 17.6626C7.38694 17.9163 8.0682 17.9163 9.43069 17.9163H10.5745C11.937 17.9163 12.6183 17.9163 13.2309 17.6626C13.8434 17.4088 14.3251 16.9272 15.2885 15.9638L15.9667 15.2856C16.9301 14.3222 17.4118 13.8405 17.6655 13.2279C17.9193 12.6153 17.9193 11.9341 17.9193 10.5716Z" stroke="#4A4C56" stroke-width="1.5" stroke-linecap="round" stroke-linejoin="round"/>
<path d="M10 6.66699V10.417" stroke="#4A4C56" stroke-width="1.5" stroke-linecap="round" stroke-linejoin="round"/>
<path d="M10 13.3232V13.3316" stroke="#4A4C56" stroke-width="1.8" stroke-linecap="round" stroke-linejoin="round"/>
</svg>
