<svg width="40" height="40" viewBox="0 0 40 40" fill="none" xmlns="http://www.w3.org/2000/svg">
<rect width="40" height="40" rx="20" fill="#F6F8FA"/>
<path d="M26.0259 24.9997H13.9741C13.16 24.9997 12.5 24.3397 12.5 23.5256C12.5 23.1347 12.6553 22.7598 12.9317 22.4833L13.4344 21.9806C13.9033 21.5118 14.1667 20.8758 14.1667 20.2128V17.9163C14.1667 14.6947 16.7783 12.083 20 12.083C23.2217 12.083 25.8333 14.6947 25.8333 17.9163V20.2128C25.8333 20.8758 26.0967 21.5118 26.5656 21.9806L27.0682 22.4833C27.3447 22.7598 27.5 23.1347 27.5 23.5256C27.5 24.3397 26.84 24.9997 26.0259 24.9997Z" stroke="#4A4C56" stroke-width="1.5" stroke-linecap="round" stroke-linejoin="round"/>
<path d="M22.9193 25C22.9193 26.6108 21.6134 27.9167 20.0026 27.9167C18.3918 27.9167 17.0859 26.6108 17.0859 25" stroke="#4A4C56" stroke-width="1.5" stroke-linecap="round" stroke-linejoin="round"/>
</svg>
