<svg width="18" height="10" viewBox="0 0 18 10" fill="none" xmlns="http://www.w3.org/2000/svg">
<path d="M0.46967 0.46967C0.762563 0.176777 1.23732 0.176777 1.53022 0.46967L5.99994 4.9394L9.46967 1.46967C9.76256 1.17678 10.2373 1.17678 10.5302 1.46967L16.2499 7.1894V3.99994C16.2499 3.58573 16.5857 3.24994 16.9999 3.24994C17.4142 3.24994 17.7499 3.58573 17.7499 3.99994V8.99994C17.7499 9.04499 17.7449 9.08892 17.7372 9.13178C17.7279 9.18441 17.713 9.23603 17.6923 9.28608C17.6803 9.31525 17.6639 9.3419 17.6484 9.36908C17.6159 9.42605 17.5788 9.48161 17.5302 9.53022C17.4816 9.57882 17.4261 9.61591 17.3691 9.64838C17.3419 9.66389 17.3152 9.68026 17.2861 9.69233C17.254 9.70556 17.2207 9.714 17.1874 9.7226C17.1743 9.726 17.1618 9.73163 17.1484 9.73432C17.1429 9.73543 17.1373 9.73626 17.1318 9.73725C17.0889 9.74486 17.045 9.74994 16.9999 9.74994H11.9999C11.5857 9.74994 11.2499 9.41416 11.2499 8.99994C11.2499 8.58573 11.5857 8.24994 11.9999 8.24994H15.1894L9.99994 3.06049L6.53022 6.53022C6.23732 6.82311 5.76256 6.82311 5.46967 6.53022L0.46967 1.53022C0.176777 1.23732 0.176777 0.762563 0.46967 0.46967Z" fill="#EB3D4D"/>
</svg>
