<svg width="27" height="20" viewBox="0 0 27 20" fill="none" xmlns="http://www.w3.org/2000/svg">
<g clip-path="url(#clip0_4208_37056)">
<path d="M0 0H27V20H0" fill="#BD3D44"/>
<path d="M0 2.30469H27H0ZM0 5.37552H27H0ZM0 8.45885H27H0ZM0 11.5422H27H0ZM0 14.6255H27H0ZM0 17.7089H27H0Z" fill="black"/>
<path d="M0 1.53516V3.07682H27V1.53516H0ZM0 4.60599V6.14766H27V4.60599H0ZM0 7.68932V9.23099H27V7.68932H0ZM0 10.7727V12.3143H27V10.7727H0ZM0 13.856V15.3977H27V13.856H0ZM0 16.9393V18.481H27V16.9393H0Z" fill="white"/>
<path d="M0 0H15.39V10.7708H0" fill="#192F5D"/>
<path d="M14.0875 9.08203L14.4672 10.207L13.4969 9.4987H14.6781L13.7078 10.207L14.0875 9.08203ZM11.5563 9.08203L11.9359 10.207L10.9656 9.4987H12.1469L11.1766 10.207L11.5563 9.08203ZM8.98281 9.08203L9.3625 10.207L8.39219 9.4987H9.57344L8.60313 10.207L8.98281 9.08203ZM6.40938 9.08203L6.78906 10.207L5.81875 9.4987H7L6.02969 10.207L6.40938 9.08203ZM3.83594 9.08203L4.21563 10.207L3.24531 9.4987H4.42656L3.45625 10.207L3.83594 9.08203ZM1.2625 9.08203L1.64219 10.207L0.671875 9.4987H1.85312L0.882812 10.207L1.2625 9.08203ZM12.8219 7.9987L13.2016 9.1237L12.2312 8.41536H13.4125L12.4422 9.1237L12.8219 7.9987ZM10.2484 7.9987L10.6281 9.1237L9.65781 8.41536H10.8391L9.86875 9.1237L10.2484 7.9987ZM7.71719 7.9987L8.09688 9.1237L7.12656 8.41536H8.30781L7.3375 9.1237L7.71719 7.9987ZM5.14375 7.9987L5.52344 9.1237L4.55313 8.41536H5.73438L4.76406 9.1237L5.14375 7.9987ZM2.57031 7.9987L2.95 9.1237L1.97969 8.41536H3.16094L2.19063 9.1237L2.57031 7.9987ZM14.0875 6.91536L14.4672 8.04036L13.4969 7.33203H14.6781L13.7078 8.04036L14.0875 6.91536ZM11.5563 6.91536L11.9359 8.04036L10.9656 7.33203H12.1469L11.1766 8.04036L11.5563 6.91536ZM8.98281 6.91536L9.3625 8.04036L8.39219 7.33203H9.57344L8.60313 8.04036L8.98281 6.91536ZM6.40938 6.91536L6.78906 8.04036L5.81875 7.33203H7L6.02969 8.04036L6.40938 6.91536ZM3.83594 6.91536L4.21563 8.04036L3.24531 7.33203H4.42656L3.45625 8.04036L3.83594 6.91536ZM1.2625 6.91536L1.64219 8.04036L0.671875 7.33203H1.85312L0.882812 8.04036L1.2625 6.91536ZM12.8219 5.8737L13.2016 6.9987L12.2312 6.29036H13.4125L12.4422 6.9987L12.8219 5.8737ZM10.2484 5.8737L10.6281 6.9987L9.65781 6.29036H10.8391L9.86875 6.9987L10.2484 5.8737ZM7.71719 5.8737L8.09688 6.9987L7.12656 6.29036H8.30781L7.3375 6.9987L7.71719 5.8737ZM5.14375 5.8737L5.52344 6.9987L4.55313 6.29036H5.73438L4.76406 6.9987L5.14375 5.8737ZM2.57031 5.8737L2.95 6.9987L1.97969 6.29036H3.16094L2.19063 6.9987L2.57031 5.8737ZM14.0875 4.79036L14.4672 5.91536L13.4969 5.20703H14.6781L13.7078 5.91536L14.0875 4.79036ZM11.5563 4.79036L11.9359 5.91536L10.9656 5.20703H12.1469L11.1766 5.91536L11.5563 4.79036ZM8.98281 4.79036L9.3625 5.91536L8.39219 5.20703H9.57344L8.60313 5.91536L8.98281 4.79036ZM6.40938 4.79036L6.78906 5.91536L5.81875 5.20703H7L6.02969 5.91536L6.40938 4.79036ZM3.83594 4.79036L4.21563 5.91536L3.24531 5.20703H4.42656L3.45625 5.91536L3.83594 4.79036ZM1.2625 4.79036L1.64219 5.91536L0.671875 5.20703H1.85312L0.882812 5.91536L1.2625 4.79036ZM12.8219 3.70703L13.2016 4.83203L12.2312 4.1237H13.4125L12.4422 4.83203L12.8219 3.70703ZM10.2484 3.70703L10.6281 4.83203L9.65781 4.1237H10.8391L9.86875 4.83203L10.2484 3.70703ZM7.71719 3.70703L8.09688 4.83203L7.12656 4.1237H8.30781L7.3375 4.83203L7.71719 3.70703ZM5.14375 3.70703L5.52344 4.83203L4.55313 4.1237H5.73438L4.76406 4.83203L5.14375 3.70703ZM2.57031 3.70703L2.95 4.83203L1.97969 4.1237H3.16094L2.19063 4.83203L2.57031 3.70703ZM14.0875 2.6237L14.4672 3.7487L13.4969 3.04036H14.6781L13.7078 3.7487L14.0875 2.6237ZM11.5563 2.6237L11.9359 3.7487L10.9656 3.04036H12.1469L11.1766 3.7487L11.5563 2.6237ZM8.98281 2.6237L9.3625 3.7487L8.39219 3.04036H9.57344L8.60313 3.7487L8.98281 2.6237ZM6.40938 2.6237L6.78906 3.7487L5.81875 3.04036H7L6.02969 3.7487L6.40938 2.6237ZM3.83594 2.6237L4.21563 3.7487L3.24531 3.04036H4.42656L3.45625 3.7487L3.83594 2.6237ZM1.2625 2.6237L1.64219 3.7487L0.671875 3.04036H1.85312L0.882812 3.7487L1.2625 2.6237ZM12.8219 1.54036L13.2016 2.66536L12.2312 1.95703H13.4125L12.4422 2.66536L12.8219 1.54036ZM10.2484 1.54036L10.6281 2.66536L9.65781 1.95703H10.8391L9.86875 2.66536L10.2484 1.54036ZM7.71719 1.54036L8.09688 2.66536L7.12656 1.95703H8.30781L7.3375 2.66536L7.71719 1.54036ZM5.14375 1.54036L5.52344 2.66536L4.55313 1.95703H5.73438L4.76406 2.66536L5.14375 1.54036ZM2.57031 1.54036L2.95 2.66536L1.97969 1.95703H3.16094L2.19063 2.66536L2.57031 1.54036ZM14.0875 0.457031L14.4672 1.58203L13.4969 0.873698H14.6781L13.7078 1.58203L14.0875 0.457031ZM11.5563 0.457031L11.9359 1.58203L10.9656 0.873698H12.1469L11.1766 1.58203L11.5563 0.457031ZM8.98281 0.457031L9.3625 1.58203L8.39219 0.873698H9.57344L8.60313 1.58203L8.98281 0.457031ZM6.40938 0.457031L6.78906 1.58203L5.81875 0.873698H7L6.02969 1.58203L6.40938 0.457031ZM3.83594 0.457031L4.21563 1.58203L3.24531 0.873698H4.42656L3.45625 1.58203L3.83594 0.457031ZM1.2625 0.457031L1.64219 1.58203L0.671875 0.873698H1.85312L0.882812 1.58203L1.2625 0.457031Z" fill="white"/>
</g>
<defs>
<clipPath id="clip0_4208_37056">
<rect width="27" height="20" rx="4" fill="white"/>
</clipPath>
</defs>
</svg>
