<svg width="18" height="10" viewBox="0 0 18 10" fill="none" xmlns="http://www.w3.org/2000/svg">
<path d="M16.9999 0.25C17.0449 0.25 17.089 0.254126 17.1318 0.261719C17.1373 0.262701 17.1429 0.263541 17.1484 0.264648C17.1618 0.267334 17.1743 0.27298 17.1874 0.276367C17.2207 0.284945 17.254 0.293437 17.2861 0.306641C17.3152 0.31868 17.3419 0.335116 17.3691 0.350586C17.4262 0.3831 17.4815 0.421001 17.5302 0.469727C17.5786 0.518121 17.616 0.573193 17.6484 0.629883C17.6639 0.65703 17.6802 0.683752 17.6923 0.712891C17.713 0.762891 17.7278 0.814588 17.7372 0.867188C17.745 0.910348 17.7499 0.954619 17.7499 1V6C17.7499 6.41421 17.4142 6.75 16.9999 6.75C16.5857 6.75 16.2499 6.41421 16.2499 6V2.81055L10.5302 8.53027C10.2373 8.82317 9.76256 8.82317 9.46967 8.53027L5.99994 5.06055L1.53022 9.53027C1.23732 9.82317 0.762563 9.82317 0.46967 9.53027C0.176777 9.23738 0.176777 8.76262 0.46967 8.46973L5.46967 3.46973C5.76256 3.17683 6.23732 3.17683 6.53022 3.46973L9.99994 6.93945L15.1894 1.75H11.9999C11.5857 1.75 11.2499 1.41421 11.2499 1C11.2499 0.585786 11.5857 0.25 11.9999 0.25H16.9999Z" fill="#00C244"/>
</svg>
