<svg width="20" height="20" viewBox="0 0 20 20" fill="none" xmlns="http://www.w3.org/2000/svg">
<path d="M17.7672 5.95083L17.3559 5.237C17.0448 4.69714 16.8893 4.42722 16.6246 4.31958C16.3599 4.21194 16.0606 4.29688 15.462 4.46674L14.4452 4.75316C14.063 4.84129 13.662 4.79129 13.3131 4.612L13.0324 4.45003C12.7331 4.25837 12.5029 3.97578 12.3755 3.64363L12.0973 2.81248C11.9143 2.26246 11.8228 1.98745 11.6049 1.83015C11.3872 1.67285 11.0979 1.67285 10.5192 1.67285H9.59019C9.0116 1.67285 8.72227 1.67285 8.50444 1.83015C8.28664 1.98745 8.19515 2.26246 8.01218 2.81248L7.73388 3.64363C7.60648 3.97578 7.37631 4.25837 7.07708 4.45003L6.79634 4.612C6.44739 4.79129 6.04643 4.84129 5.66425 4.75316L4.64739 4.46674C4.04878 4.29688 3.74948 4.21194 3.48483 4.31958C3.22018 4.42722 3.06464 4.69714 2.75356 5.237L2.34224 5.95083C2.05065 6.45688 1.90485 6.7099 1.93315 6.97925C1.96144 7.2486 2.15663 7.46566 2.54699 7.89978L3.40619 8.86034C3.61619 9.12618 3.76528 9.58951 3.76528 10.0061C3.76528 10.4228 3.61624 10.886 3.40621 11.1519L2.54699 12.1125C2.15663 12.5467 1.96145 12.7637 1.93315 13.0331C1.90485 13.3024 2.05065 13.5554 2.34224 14.0614L2.75355 14.7753C3.06463 15.3151 3.22018 15.5851 3.48483 15.6927C3.74948 15.8003 4.04879 15.7154 4.64741 15.5455L5.66422 15.2591C6.04646 15.1709 6.44749 15.221 6.79649 15.4003L7.07719 15.5623C7.37636 15.754 7.60647 16.0365 7.73385 16.3687L8.01218 17.1999C8.19515 17.7499 8.28664 18.0249 8.50444 18.1823C8.72227 18.3395 9.0116 18.3395 9.59019 18.3395H10.5192C11.0979 18.3395 11.3872 18.3395 11.6049 18.1823C11.8228 18.0249 11.9143 17.7499 12.0973 17.1999L12.3756 16.3687C12.5029 16.0365 12.733 15.754 13.0323 15.5623L13.3129 15.4003C13.6619 15.221 14.0629 15.1709 14.4452 15.2591L15.462 15.5455C16.0606 15.7154 16.3599 15.8003 16.6246 15.6927C16.8893 15.5851 17.0448 15.3151 17.3559 14.7753L17.7672 14.0614C18.0588 13.5554 18.2045 13.3024 18.1763 13.0331C18.1479 12.7637 17.9528 12.5467 17.5624 12.1125L16.7032 11.1519C16.4932 10.886 16.3441 10.4228 16.3441 10.0061C16.3441 9.58951 16.4933 9.12618 16.7032 8.86034L17.5624 7.89978C17.9528 7.46566 18.1479 7.2486 18.1763 6.97925C18.2045 6.7099 18.0588 6.45688 17.7672 5.95083Z" stroke="#4A4C56" stroke-width="1.5" stroke-linecap="round"/>
<path d="M12.9271 9.99967C12.9271 11.6105 11.6212 12.9163 10.0104 12.9163C8.39956 12.9163 7.09375 11.6105 7.09375 9.99967C7.09375 8.38884 8.39956 7.08301 10.0104 7.08301C11.6212 7.08301 12.9271 8.38884 12.9271 9.99967Z" stroke="#4A4C56" stroke-width="1.5"/>
</svg>
