<svg width="20" height="20" viewBox="0 0 20 20" fill="none" xmlns="http://www.w3.org/2000/svg">
<path d="M1.66406 9.99967C1.66406 6.26772 1.66406 4.40175 2.82343 3.24237C3.9828 2.08301 5.84878 2.08301 9.58073 2.08301C13.3126 2.08301 15.1786 2.08301 16.3381 3.24237C17.4974 4.40175 17.4974 6.26772 17.4974 9.99967C17.4974 13.7316 17.4974 15.5976 16.3381 16.757C15.1786 17.9163 13.3126 17.9163 9.58073 17.9163C5.84878 17.9163 3.9828 17.9163 2.82343 16.757C1.66406 15.5976 1.66406 13.7316 1.66406 9.99967Z" stroke="#4A4C56" stroke-width="1.5" stroke-linejoin="round"/>
<path d="M10.3006 6.43475L11.0338 7.91338C11.1338 8.11921 11.4005 8.31663 11.6254 8.35443L12.9545 8.57709C13.8044 8.71993 14.0043 9.34159 13.3919 9.95484L12.3586 10.9967C12.1837 11.1731 12.0879 11.5133 12.1421 11.7569L12.4378 13.0465C12.6711 14.0673 12.1337 14.4622 11.238 13.9287L9.99231 13.1852C9.76731 13.0508 9.39648 13.0508 9.1674 13.1852L7.92167 13.9287C7.0301 14.4622 6.4885 14.0631 6.72181 13.0465L7.0176 11.7569C7.07177 11.5133 6.97595 11.1731 6.80096 10.9967L5.76775 9.95484C5.15948 9.34159 5.35529 8.71993 6.2052 8.57709L7.53422 8.35443C7.75503 8.31663 8.02166 8.11921 8.12166 7.91338L8.8549 6.43475C9.2549 5.63243 9.90481 5.63243 10.3006 6.43475Z" stroke="#4A4C56" stroke-width="1.5" stroke-linecap="round" stroke-linejoin="round"/>
</svg>
