<svg width="20" height="20" viewBox="0 0 20 20" fill="none" xmlns="http://www.w3.org/2000/svg">
<path d="M12.5 6.66699C12.5 8.0477 11.3807 9.16699 10 9.16699C8.61925 9.16699 7.5 8.0477 7.5 6.66699C7.5 5.28628 8.61925 4.16699 10 4.16699C11.3807 4.16699 12.5 5.28628 12.5 6.66699Z" stroke="#4A4C56" stroke-width="1.5" stroke-linecap="round" stroke-linejoin="round"/>
<path d="M13.3359 3.33301C14.7166 3.33301 15.8359 4.4523 15.8359 5.83301C15.8359 6.85225 15.2259 7.72903 14.3512 8.11826" stroke="#4A4C56" stroke-width="1.5" stroke-linecap="round" stroke-linejoin="round"/>
<path d="M11.4286 11.667H8.57143C6.59898 11.667 5 13.266 5 15.2384C5 16.0274 5.63959 16.667 6.42857 16.667H13.5714C14.3604 16.667 15 16.0274 15 15.2384C15 13.266 13.401 11.667 11.4286 11.667Z" stroke="#4A4C56" stroke-width="1.5" stroke-linecap="round" stroke-linejoin="round"/>
<path d="M14.7578 10.833C16.7302 10.833 18.3292 12.432 18.3292 14.4044C18.3292 15.1934 17.6896 15.833 16.9006 15.833" stroke="#4A4C56" stroke-width="1.5" stroke-linecap="round" stroke-linejoin="round"/>
<path d="M6.66406 3.33301C5.28335 3.33301 4.16406 4.4523 4.16406 5.83301C4.16406 6.85225 4.774 7.72903 5.6488 8.11826" stroke="#141B34" stroke-width="1.5" stroke-linecap="round" stroke-linejoin="round"/>
<path d="M3.09264 15.833C2.30365 15.833 1.66406 15.1934 1.66406 14.4044C1.66406 12.432 3.26305 10.833 5.23549 10.833" stroke="#141B34" stroke-width="1.5" stroke-linecap="round" stroke-linejoin="round"/>
</svg>
